<svg xmlns="http://www.w3.org/2000/svg" width="340" height="200" viewBox="0 0 340 200" font-family="'Segoe UI', Ubuntu, Sans-Serif">
  <rect x="0.5" y="0.5" width="339" height="199" rx="6" fill="#0d1117" stroke="#2e343b" stroke-opacity="1.00"/>
  <text x="20" y="30" font-size="15" font-weight="600" fill="#0366d6">Most Commit Language (all time)</text>
  <rect x="20" y="47" width="10" height="10" fill="#3178c6" stroke="#0d1117" stroke-width="1"/>
  <text x="36" y="55" font-size="11" fill="#77909c">TypeScript 27.27%</text>
  <rect x="20" y="67" width="10" height="10" fill="#f1e05a" stroke="#0d1117" stroke-width="1"/>
  <text x="36" y="75" font-size="11" fill="#77909c">JavaScript 24.42%</text>
  <rect x="20" y="87" width="10" height="10" fill="#ff3e00" stroke="#0d1117" stroke-width="1"/>
  <text x="36" y="95" font-size="11" fill="#77909c">Svelte 11.04%</text>
  <rect x="20" y="107" width="10" height="10" fill="#00ADD8" stroke="#0d1117" stroke-width="1"/>
  <text x="36" y="115" font-size="11" fill="#77909c">Go 9.13%</text>
  <rect x="20" y="127" width="10" height="10" fill="#e34c26" stroke="#0d1117" stroke-width="1"/>
  <text x="36" y="135" font-size="11" fill="#77909c">HTML 6.89%</text>
  <rect x="20" y="147" width="10" height="10" fill="#663399" stroke="#0d1117" stroke-width="1"/>
  <text x="36" y="155" font-size="11" fill="#77909c">CSS 6.37%</text>
  <rect x="20" y="167" width="10" height="10" fill="#40c463" stroke="#0d1117" stroke-width="1"/>
  <text x="36" y="175" font-size="11" fill="#77909c">Other 14.88%</text>
  <path d="M250.00,55.00 A55.00,55.00 0 0 1 304.44,117.82 L279.69,114.27 A30.00,30.00 0 0 0 250.00,80.00 Z" fill="#3178c6" stroke="#0d1117" stroke-width="1.5"/>
  <path d="M304.44,117.82 A55.00,55.00 0 0 1 244.18,164.69 L246.82,139.83 A30.00,30.00 0 0 0 279.69,114.27 Z" fill="#f1e05a" stroke="#0d1117" stroke-width="1.5"/>
  <path d="M244.18,164.69 A55.00,55.00 0 0 1 210.55,148.32 L228.48,130.90 A30.00,30.00 0 0 0 246.82,139.83 Z" fill="#ff3e00" stroke="#0d1117" stroke-width="1.5"/>
  <path d="M210.55,148.32 A55.00,55.00 0 0 1 196.07,120.79 L220.58,115.88 A30.00,30.00 0 0 0 228.48,130.90 Z" fill="#00ADD8" stroke="#0d1117" stroke-width="1.5"/>
  <path d="M196.07,120.79 A55.00,55.00 0 0 1 196.52,97.15 L220.83,102.99 A30.00,30.00 0 0 0 220.58,115.88 Z" fill="#e34c26" stroke="#0d1117" stroke-width="1.5"/>
  <path d="M196.52,97.15 A55.00,55.00 0 0 1 205.75,77.34 L225.86,92.19 A30.00,30.00 0 0 0 220.83,102.99 Z" fill="#663399" stroke="#0d1117" stroke-width="1.5"/>
  <path d="M205.75,77.34 A55.00,55.00 0 0 1 250.00,55.00 L250.00,80.00 A30.00,30.00 0 0 0 225.86,92.19 Z" fill="#40c463" stroke="#0d1117" stroke-width="1.5"/>
</svg>